<mxfile host="Electron" modified="2024-03-05T01:28:03.225Z" agent="Mozilla/5.0 (Macintosh; Intel Mac OS X 10_15_7) AppleWebKit/537.36 (KHTML, like Gecko) draw.io/23.1.5 Chrome/120.0.6099.109 Electron/28.1.0 Safari/537.36" etag="oziAMwyiWa51DvnsQrMr" version="23.1.5" type="device">
  <diagram id="C5RBs43oDa-KdzZeNtuy" name="Page-1">
    <mxGraphModel dx="979" dy="571" grid="1" gridSize="10" guides="1" tooltips="1" connect="1" arrows="1" fold="1" page="1" pageScale="1" pageWidth="827" pageHeight="1169" math="0" shadow="0">
      <root>
        <mxCell id="WIyWlLk6GJQsqaUBKTNV-0" />
        <mxCell id="WIyWlLk6GJQsqaUBKTNV-1" parent="WIyWlLk6GJQsqaUBKTNV-0" />
        <mxCell id="WIyWlLk6GJQsqaUBKTNV-2" value="" style="rounded=0;html=1;jettySize=auto;orthogonalLoop=1;fontSize=11;endArrow=block;endFill=0;endSize=8;strokeWidth=1;shadow=0;labelBackgroundColor=none;edgeStyle=orthogonalEdgeStyle;" parent="WIyWlLk6GJQsqaUBKTNV-1" source="WIyWlLk6GJQsqaUBKTNV-3" target="WIyWlLk6GJQsqaUBKTNV-6" edge="1">
          <mxGeometry relative="1" as="geometry" />
        </mxCell>
        <mxCell id="WIyWlLk6GJQsqaUBKTNV-3" value="Power ON" style="rounded=1;whiteSpace=wrap;html=1;fontSize=12;glass=0;strokeWidth=1;shadow=0;" parent="WIyWlLk6GJQsqaUBKTNV-1" vertex="1">
          <mxGeometry x="400" y="80" width="120" height="40" as="geometry" />
        </mxCell>
        <mxCell id="WIyWlLk6GJQsqaUBKTNV-4" value="" style="rounded=0;html=1;jettySize=auto;orthogonalLoop=1;fontSize=11;endArrow=block;endFill=0;endSize=8;strokeWidth=1;shadow=0;labelBackgroundColor=none;edgeStyle=orthogonalEdgeStyle;" parent="WIyWlLk6GJQsqaUBKTNV-1" source="WIyWlLk6GJQsqaUBKTNV-6" edge="1">
          <mxGeometry y="20" relative="1" as="geometry">
            <mxPoint as="offset" />
            <mxPoint x="220" y="280" as="targetPoint" />
          </mxGeometry>
        </mxCell>
        <mxCell id="Nl6X3K14c8FEmPsiGEoy-2" value="manual" style="edgeLabel;html=1;align=center;verticalAlign=middle;resizable=0;points=[];" vertex="1" connectable="0" parent="WIyWlLk6GJQsqaUBKTNV-4">
          <mxGeometry x="-0.2769" relative="1" as="geometry">
            <mxPoint as="offset" />
          </mxGeometry>
        </mxCell>
        <mxCell id="WIyWlLk6GJQsqaUBKTNV-5" value="" style="edgeStyle=orthogonalEdgeStyle;rounded=0;html=1;jettySize=auto;orthogonalLoop=1;fontSize=11;endArrow=block;endFill=0;endSize=8;strokeWidth=1;shadow=0;labelBackgroundColor=none;entryX=0.5;entryY=0;entryDx=0;entryDy=0;" parent="WIyWlLk6GJQsqaUBKTNV-1" source="WIyWlLk6GJQsqaUBKTNV-6" target="Nl6X3K14c8FEmPsiGEoy-4" edge="1">
          <mxGeometry y="10" relative="1" as="geometry">
            <mxPoint as="offset" />
            <mxPoint x="660" y="280" as="targetPoint" />
          </mxGeometry>
        </mxCell>
        <mxCell id="Nl6X3K14c8FEmPsiGEoy-3" value="auto" style="edgeLabel;html=1;align=center;verticalAlign=middle;resizable=0;points=[];" vertex="1" connectable="0" parent="WIyWlLk6GJQsqaUBKTNV-5">
          <mxGeometry x="-0.2462" y="2" relative="1" as="geometry">
            <mxPoint x="-28" y="2" as="offset" />
          </mxGeometry>
        </mxCell>
        <mxCell id="WIyWlLk6GJQsqaUBKTNV-6" value="&lt;font color=&quot;#0000ff&quot;&gt;startmode&lt;/font&gt;" style="rhombus;whiteSpace=wrap;html=1;shadow=0;fontFamily=Helvetica;fontSize=12;align=center;strokeWidth=1;spacing=6;spacingTop=-4;" parent="WIyWlLk6GJQsqaUBKTNV-1" vertex="1">
          <mxGeometry x="410" y="180" width="100" height="80" as="geometry" />
        </mxCell>
        <mxCell id="WIyWlLk6GJQsqaUBKTNV-12" value="run idle" style="rounded=1;whiteSpace=wrap;html=1;fontSize=12;glass=0;strokeWidth=1;shadow=0;" parent="WIyWlLk6GJQsqaUBKTNV-1" vertex="1">
          <mxGeometry x="160" y="280" width="120" height="40" as="geometry" />
        </mxCell>
        <mxCell id="Nl6X3K14c8FEmPsiGEoy-0" value="&lt;b&gt;&lt;font style=&quot;font-size: 20px;&quot;&gt;Feed Control Auto Start State Diagram&lt;/font&gt;&lt;/b&gt;" style="text;html=1;align=center;verticalAlign=middle;whiteSpace=wrap;rounded=0;" vertex="1" parent="WIyWlLk6GJQsqaUBKTNV-1">
          <mxGeometry x="240" width="400" height="30" as="geometry" />
        </mxCell>
        <mxCell id="Nl6X3K14c8FEmPsiGEoy-7" style="edgeStyle=orthogonalEdgeStyle;rounded=0;orthogonalLoop=1;jettySize=auto;html=1;exitX=0.5;exitY=1;exitDx=0;exitDy=0;entryX=0.5;entryY=0;entryDx=0;entryDy=0;" edge="1" parent="WIyWlLk6GJQsqaUBKTNV-1" source="Nl6X3K14c8FEmPsiGEoy-4" target="Nl6X3K14c8FEmPsiGEoy-6">
          <mxGeometry relative="1" as="geometry" />
        </mxCell>
        <mxCell id="Nl6X3K14c8FEmPsiGEoy-8" value="no return of TC&lt;br&gt;(cryocooler controller off)" style="edgeLabel;html=1;align=center;verticalAlign=middle;resizable=0;points=[];" vertex="1" connectable="0" parent="Nl6X3K14c8FEmPsiGEoy-7">
          <mxGeometry x="-0.2667" y="1" relative="1" as="geometry">
            <mxPoint as="offset" />
          </mxGeometry>
        </mxCell>
        <mxCell id="Nl6X3K14c8FEmPsiGEoy-9" style="edgeStyle=orthogonalEdgeStyle;rounded=0;orthogonalLoop=1;jettySize=auto;html=1;exitX=0;exitY=0.5;exitDx=0;exitDy=0;entryX=0.5;entryY=0;entryDx=0;entryDy=0;" edge="1" parent="WIyWlLk6GJQsqaUBKTNV-1" source="Nl6X3K14c8FEmPsiGEoy-4" target="Nl6X3K14c8FEmPsiGEoy-11">
          <mxGeometry relative="1" as="geometry">
            <mxPoint x="360" y="390" as="targetPoint" />
          </mxGeometry>
        </mxCell>
        <mxCell id="Nl6X3K14c8FEmPsiGEoy-10" value="TC&amp;gt;=200K" style="edgeLabel;html=1;align=center;verticalAlign=middle;resizable=0;points=[];" vertex="1" connectable="0" parent="Nl6X3K14c8FEmPsiGEoy-9">
          <mxGeometry x="-0.3255" y="-2" relative="1" as="geometry">
            <mxPoint as="offset" />
          </mxGeometry>
        </mxCell>
        <mxCell id="Nl6X3K14c8FEmPsiGEoy-42" style="edgeStyle=orthogonalEdgeStyle;rounded=0;orthogonalLoop=1;jettySize=auto;html=1;exitX=1;exitY=0.5;exitDx=0;exitDy=0;" edge="1" parent="WIyWlLk6GJQsqaUBKTNV-1" source="Nl6X3K14c8FEmPsiGEoy-4">
          <mxGeometry relative="1" as="geometry">
            <mxPoint x="940" y="400" as="targetPoint" />
          </mxGeometry>
        </mxCell>
        <mxCell id="Nl6X3K14c8FEmPsiGEoy-44" value="TC &amp;lt;200K" style="edgeLabel;html=1;align=center;verticalAlign=middle;resizable=0;points=[];" vertex="1" connectable="0" parent="Nl6X3K14c8FEmPsiGEoy-42">
          <mxGeometry x="-0.289" y="-1" relative="1" as="geometry">
            <mxPoint y="1" as="offset" />
          </mxGeometry>
        </mxCell>
        <mxCell id="Nl6X3K14c8FEmPsiGEoy-4" value="read temp sensor TC" style="rhombus;whiteSpace=wrap;html=1;shadow=0;fontFamily=Helvetica;fontSize=12;align=center;strokeWidth=1;spacing=6;spacingTop=-4;" vertex="1" parent="WIyWlLk6GJQsqaUBKTNV-1">
          <mxGeometry x="610" y="260" width="100" height="80" as="geometry" />
        </mxCell>
        <mxCell id="Nl6X3K14c8FEmPsiGEoy-6" value="run idle&lt;br&gt;create error code" style="rounded=1;whiteSpace=wrap;html=1;fontSize=12;glass=0;strokeWidth=1;shadow=0;" vertex="1" parent="WIyWlLk6GJQsqaUBKTNV-1">
          <mxGeometry x="600" y="400" width="120" height="40" as="geometry" />
        </mxCell>
        <mxCell id="Nl6X3K14c8FEmPsiGEoy-13" style="edgeStyle=orthogonalEdgeStyle;rounded=0;orthogonalLoop=1;jettySize=auto;html=1;exitX=0.5;exitY=1;exitDx=0;exitDy=0;entryX=0.5;entryY=0;entryDx=0;entryDy=0;" edge="1" parent="WIyWlLk6GJQsqaUBKTNV-1" source="Nl6X3K14c8FEmPsiGEoy-11" target="Nl6X3K14c8FEmPsiGEoy-12">
          <mxGeometry relative="1" as="geometry" />
        </mxCell>
        <mxCell id="Nl6X3K14c8FEmPsiGEoy-11" value="&lt;font style=&quot;font-size: 11px;&quot;&gt;state = init&lt;br&gt;(set initial parameters)&lt;/font&gt;&lt;br&gt;&lt;div style=&quot;text-align: left;&quot;&gt;&lt;span style=&quot;font-size: 8px; background-color: initial;&quot;&gt;SET SSTOP=1&lt;/span&gt;&lt;/div&gt;&lt;div style=&quot;text-align: left;&quot;&gt;&lt;span style=&quot;font-size: 8px; background-color: initial;&quot;&gt;SET SSTOPM=1&lt;/span&gt;&lt;/div&gt;&lt;div style=&quot;text-align: left;&quot;&gt;&lt;span style=&quot;font-size: 8px; background-color: initial;&quot;&gt;p010=0&lt;/span&gt;&lt;/div&gt;&lt;div style=&quot;text-align: left;&quot;&gt;&lt;span style=&quot;font-size: 8px; background-color: initial;&quot;&gt;p002=0&lt;/span&gt;&lt;/div&gt;&lt;div style=&quot;text-align: left;&quot;&gt;&lt;span style=&quot;font-size: 8px; background-color: initial;&quot;&gt;p023=0&lt;/span&gt;&lt;/div&gt;&lt;div style=&quot;text-align: left;&quot;&gt;&lt;span style=&quot;font-size: 8px; background-color: initial;&quot;&gt;p024=0&lt;/span&gt;&lt;/div&gt;" style="rounded=1;whiteSpace=wrap;html=1;fontSize=12;glass=0;strokeWidth=1;shadow=0;" vertex="1" parent="WIyWlLk6GJQsqaUBKTNV-1">
          <mxGeometry x="280" y="400" width="130" height="120" as="geometry" />
        </mxCell>
        <mxCell id="Nl6X3K14c8FEmPsiGEoy-15" style="edgeStyle=orthogonalEdgeStyle;rounded=0;orthogonalLoop=1;jettySize=auto;html=1;exitX=0.5;exitY=1;exitDx=0;exitDy=0;entryX=0.5;entryY=0;entryDx=0;entryDy=0;" edge="1" parent="WIyWlLk6GJQsqaUBKTNV-1" source="Nl6X3K14c8FEmPsiGEoy-12" target="Nl6X3K14c8FEmPsiGEoy-14">
          <mxGeometry relative="1" as="geometry" />
        </mxCell>
        <mxCell id="Nl6X3K14c8FEmPsiGEoy-12" value="&lt;font style=&quot;font-size: 11px;&quot;&gt;state = vac1&lt;br&gt;(start diaphragm pump)&lt;br&gt;&amp;nbsp;&lt;br&gt;&lt;/font&gt;&lt;div style=&quot;text-align: left;&quot;&gt;&lt;span style=&quot;font-size: 8px; background-color: initial;&quot;&gt;p010=1&lt;/span&gt;&lt;/div&gt;&lt;div style=&quot;text-align: left;&quot;&gt;&lt;span style=&quot;font-size: 8px; background-color: initial;&quot;&gt;p024=009&lt;/span&gt;&lt;/div&gt;&lt;div style=&quot;text-align: left;&quot;&gt;&lt;span style=&quot;font-size: 8px; background-color: initial;&quot;&gt;&lt;br&gt;&lt;/span&gt;&lt;/div&gt;&lt;div style=&quot;text-align: left;&quot;&gt;&lt;span style=&quot;font-size: 8px; background-color: initial;&quot;&gt;&lt;br&gt;&lt;/span&gt;&lt;/div&gt;&lt;div style=&quot;text-align: left;&quot;&gt;&lt;span style=&quot;font-size: 8px; background-color: initial;&quot;&gt;&lt;br&gt;&lt;/span&gt;&lt;/div&gt;" style="rounded=1;whiteSpace=wrap;html=1;fontSize=12;glass=0;strokeWidth=1;shadow=0;" vertex="1" parent="WIyWlLk6GJQsqaUBKTNV-1">
          <mxGeometry x="280" y="560" width="130" height="120" as="geometry" />
        </mxCell>
        <mxCell id="Nl6X3K14c8FEmPsiGEoy-17" style="edgeStyle=orthogonalEdgeStyle;rounded=0;orthogonalLoop=1;jettySize=auto;html=1;entryX=0.5;entryY=0;entryDx=0;entryDy=0;" edge="1" parent="WIyWlLk6GJQsqaUBKTNV-1" source="Nl6X3K14c8FEmPsiGEoy-14" target="Nl6X3K14c8FEmPsiGEoy-16">
          <mxGeometry relative="1" as="geometry" />
        </mxCell>
        <mxCell id="Nl6X3K14c8FEmPsiGEoy-14" value="&lt;p style=&quot;line-height: 60%;&quot;&gt;&lt;font style=&quot;font-size: 7px;&quot;&gt;&lt;font style=&quot;font-size: 7px;&quot;&gt;time &amp;gt; &lt;font color=&quot;#0000ff&quot;&gt;backingtime&lt;/font&gt;&lt;br&gt;&lt;/font&gt;or&lt;br&gt;&lt;font color=&quot;#0000ff&quot;&gt;step&lt;/font&gt; = true&lt;br&gt;&lt;/font&gt;&lt;/p&gt;" style="rhombus;whiteSpace=wrap;html=1;shadow=0;fontFamily=Helvetica;fontSize=12;align=center;strokeWidth=1;spacing=6;spacingTop=-4;" vertex="1" parent="WIyWlLk6GJQsqaUBKTNV-1">
          <mxGeometry x="295" y="720" width="100" height="80" as="geometry" />
        </mxCell>
        <mxCell id="Nl6X3K14c8FEmPsiGEoy-19" style="edgeStyle=orthogonalEdgeStyle;rounded=0;orthogonalLoop=1;jettySize=auto;html=1;exitX=0.5;exitY=1;exitDx=0;exitDy=0;entryX=0.5;entryY=0;entryDx=0;entryDy=0;" edge="1" parent="WIyWlLk6GJQsqaUBKTNV-1" source="Nl6X3K14c8FEmPsiGEoy-16" target="Nl6X3K14c8FEmPsiGEoy-18">
          <mxGeometry relative="1" as="geometry" />
        </mxCell>
        <mxCell id="Nl6X3K14c8FEmPsiGEoy-16" value="&lt;font style=&quot;font-size: 11px;&quot;&gt;state = vac2&lt;br&gt;(start turbo on standby)&lt;br&gt;&amp;nbsp;&lt;br&gt;&lt;/font&gt;&lt;div style=&quot;text-align: left;&quot;&gt;&lt;span style=&quot;font-size: 8px; background-color: initial;&quot;&gt;p023=1&lt;/span&gt;&lt;/div&gt;&lt;div style=&quot;text-align: left;&quot;&gt;&lt;span style=&quot;font-size: 8px; background-color: initial;&quot;&gt;p002=1&lt;/span&gt;&lt;/div&gt;&lt;div style=&quot;text-align: left;&quot;&gt;&lt;span style=&quot;font-size: 8px; background-color: initial;&quot;&gt;p717=002000&lt;/span&gt;&lt;/div&gt;&lt;div style=&quot;text-align: left;&quot;&gt;&lt;br&gt;&lt;/div&gt;&lt;div style=&quot;text-align: left;&quot;&gt;&lt;span style=&quot;font-size: 8px; background-color: initial;&quot;&gt;&lt;br&gt;&lt;/span&gt;&lt;/div&gt;" style="rounded=1;whiteSpace=wrap;html=1;fontSize=12;glass=0;strokeWidth=1;shadow=0;" vertex="1" parent="WIyWlLk6GJQsqaUBKTNV-1">
          <mxGeometry x="280" y="840" width="130" height="120" as="geometry" />
        </mxCell>
        <mxCell id="Nl6X3K14c8FEmPsiGEoy-21" style="edgeStyle=orthogonalEdgeStyle;rounded=0;orthogonalLoop=1;jettySize=auto;html=1;exitX=0.5;exitY=1;exitDx=0;exitDy=0;" edge="1" parent="WIyWlLk6GJQsqaUBKTNV-1" source="Nl6X3K14c8FEmPsiGEoy-18" target="Nl6X3K14c8FEmPsiGEoy-20">
          <mxGeometry relative="1" as="geometry" />
        </mxCell>
        <mxCell id="Nl6X3K14c8FEmPsiGEoy-18" value="&lt;p style=&quot;line-height: 60%;&quot;&gt;&lt;font style=&quot;font-size: 7px;&quot;&gt;&lt;font style=&quot;font-size: 7px;&quot;&gt;time &amp;gt; &lt;font color=&quot;#0000ff&quot;&gt;standbytime&lt;/font&gt;&lt;br&gt;&lt;/font&gt;or&lt;br&gt;&lt;font color=&quot;#0000ff&quot;&gt;step&lt;/font&gt; = true&lt;br&gt;&lt;/font&gt;&lt;/p&gt;" style="rhombus;whiteSpace=wrap;html=1;shadow=0;fontFamily=Helvetica;fontSize=12;align=center;strokeWidth=1;spacing=6;spacingTop=-4;" vertex="1" parent="WIyWlLk6GJQsqaUBKTNV-1">
          <mxGeometry x="295" y="1000" width="100" height="80" as="geometry" />
        </mxCell>
        <mxCell id="Nl6X3K14c8FEmPsiGEoy-23" style="edgeStyle=orthogonalEdgeStyle;rounded=0;orthogonalLoop=1;jettySize=auto;html=1;" edge="1" parent="WIyWlLk6GJQsqaUBKTNV-1" source="Nl6X3K14c8FEmPsiGEoy-20" target="Nl6X3K14c8FEmPsiGEoy-22">
          <mxGeometry relative="1" as="geometry" />
        </mxCell>
        <mxCell id="Nl6X3K14c8FEmPsiGEoy-20" value="&lt;font style=&quot;font-size: 11px;&quot;&gt;state = vac3&lt;br&gt;(start turbo on full)&lt;br&gt;&amp;nbsp;&lt;br&gt;&lt;/font&gt;&lt;div style=&quot;text-align: left;&quot;&gt;&lt;span style=&quot;font-size: 8px; background-color: initial;&quot;&gt;p002=0&lt;/span&gt;&lt;/div&gt;&lt;div style=&quot;text-align: left;&quot;&gt;&lt;span style=&quot;font-size: 8px; background-color: initial;&quot;&gt;p024=0&lt;/span&gt;&lt;/div&gt;&lt;div style=&quot;text-align: left;&quot;&gt;&lt;br&gt;&lt;/div&gt;&lt;div style=&quot;text-align: left;&quot;&gt;&lt;span style=&quot;font-size: 8px; background-color: initial;&quot;&gt;&lt;br&gt;&lt;/span&gt;&lt;/div&gt;" style="rounded=1;whiteSpace=wrap;html=1;fontSize=12;glass=0;strokeWidth=1;shadow=0;" vertex="1" parent="WIyWlLk6GJQsqaUBKTNV-1">
          <mxGeometry x="280" y="1120" width="130" height="120" as="geometry" />
        </mxCell>
        <mxCell id="Nl6X3K14c8FEmPsiGEoy-24" style="edgeStyle=orthogonalEdgeStyle;rounded=0;orthogonalLoop=1;jettySize=auto;html=1;exitX=0.5;exitY=1;exitDx=0;exitDy=0;entryX=0;entryY=0.5;entryDx=0;entryDy=0;" edge="1" parent="WIyWlLk6GJQsqaUBKTNV-1" source="Nl6X3K14c8FEmPsiGEoy-22" target="Nl6X3K14c8FEmPsiGEoy-22">
          <mxGeometry relative="1" as="geometry">
            <mxPoint x="290" y="1320" as="targetPoint" />
            <Array as="points">
              <mxPoint x="345" y="1380" />
              <mxPoint x="210" y="1380" />
              <mxPoint x="210" y="1320" />
            </Array>
          </mxGeometry>
        </mxCell>
        <mxCell id="Nl6X3K14c8FEmPsiGEoy-26" value="&lt;p style=&quot;line-height: 80%; font-size: 8px;&quot;&gt;&lt;font style=&quot;font-size: 8px;&quot;&gt;if time &amp;gt; &lt;font color=&quot;#0000ff&quot;&gt;turbotime&lt;/font&gt;&lt;br&gt;and&amp;nbsp;&lt;br&gt;p316 &amp;gt;&amp;nbsp;&lt;font color=&quot;#0000ff&quot;&gt;turbocheckpower&lt;/font&gt;&lt;br&gt;set time = 0 and restart time counter&lt;/font&gt;&lt;/p&gt;" style="edgeLabel;html=1;align=center;verticalAlign=middle;resizable=0;points=[];" vertex="1" connectable="0" parent="Nl6X3K14c8FEmPsiGEoy-24">
          <mxGeometry x="0.4528" y="-1" relative="1" as="geometry">
            <mxPoint y="28" as="offset" />
          </mxGeometry>
        </mxCell>
        <mxCell id="Nl6X3K14c8FEmPsiGEoy-28" style="edgeStyle=orthogonalEdgeStyle;rounded=0;orthogonalLoop=1;jettySize=auto;html=1;exitX=0.5;exitY=1;exitDx=0;exitDy=0;" edge="1" parent="WIyWlLk6GJQsqaUBKTNV-1" source="Nl6X3K14c8FEmPsiGEoy-22">
          <mxGeometry relative="1" as="geometry">
            <mxPoint x="345" y="1400" as="targetPoint" />
          </mxGeometry>
        </mxCell>
        <mxCell id="Nl6X3K14c8FEmPsiGEoy-22" value="&lt;p style=&quot;line-height: 0%; font-size: 7px;&quot;&gt;&lt;br&gt;&lt;/p&gt;&lt;p style=&quot;line-height: 0%; font-size: 7px;&quot;&gt;time &amp;gt; &lt;font color=&quot;#0000ff&quot;&gt;turbotime&lt;/font&gt;&lt;/p&gt;&lt;p style=&quot;line-height: 0%; font-size: 7px;&quot;&gt;and&lt;/p&gt;&lt;p style=&quot;line-height: 0%; font-size: 7px;&quot;&gt;p316 &amp;lt; &lt;font color=&quot;#0000ff&quot;&gt;turbocheckpower&lt;/font&gt;&lt;/p&gt;&lt;p style=&quot;line-height: 0%; font-size: 7px;&quot;&gt;&lt;br&gt;&lt;/p&gt;&lt;p style=&quot;line-height: 0%; font-size: 7px;&quot;&gt;or&lt;/p&gt;&lt;p style=&quot;line-height: 0%; font-size: 7px;&quot;&gt;&lt;font color=&quot;#0000ff&quot;&gt;step&lt;/font&gt; = true&lt;/p&gt;" style="rhombus;whiteSpace=wrap;html=1;shadow=0;fontFamily=Helvetica;fontSize=12;align=center;strokeWidth=1;spacing=6;spacingTop=-4;" vertex="1" parent="WIyWlLk6GJQsqaUBKTNV-1">
          <mxGeometry x="295" y="1280" width="100" height="80" as="geometry" />
        </mxCell>
        <mxCell id="Nl6X3K14c8FEmPsiGEoy-30" style="edgeStyle=orthogonalEdgeStyle;rounded=0;orthogonalLoop=1;jettySize=auto;html=1;" edge="1" parent="WIyWlLk6GJQsqaUBKTNV-1" source="Nl6X3K14c8FEmPsiGEoy-29">
          <mxGeometry relative="1" as="geometry">
            <mxPoint x="345" y="1560" as="targetPoint" />
          </mxGeometry>
        </mxCell>
        <mxCell id="Nl6X3K14c8FEmPsiGEoy-29" value="&lt;font style=&quot;font-size: 11px;&quot;&gt;state = cool1&lt;br&gt;(start cooler on power ctrl.)&amp;nbsp;&lt;br&gt;&lt;/font&gt;&lt;div style=&quot;text-align: left;&quot;&gt;&lt;br&gt;&lt;/div&gt;&lt;div style=&quot;text-align: left;&quot;&gt;&lt;span style=&quot;font-size: 8px; background-color: initial;&quot;&gt;SET PID=0&lt;/span&gt;&lt;/div&gt;&lt;div style=&quot;text-align: left;&quot;&gt;&lt;span style=&quot;font-size: 8px; background-color: initial;&quot;&gt;SET PWOUT=&lt;font color=&quot;#0000ff&quot;&gt;cryostartpower&lt;/font&gt;&lt;/span&gt;&lt;/div&gt;&lt;div style=&quot;text-align: left;&quot;&gt;&lt;span style=&quot;font-size: 8px; background-color: initial;&quot;&gt;SET SSTOP=0&lt;/span&gt;&lt;/div&gt;&lt;div style=&quot;text-align: left;&quot;&gt;&lt;span style=&quot;font-size: 8px; background-color: initial;&quot;&gt;&lt;br&gt;&lt;/span&gt;&lt;/div&gt;" style="rounded=1;whiteSpace=wrap;html=1;fontSize=12;glass=0;strokeWidth=1;shadow=0;" vertex="1" parent="WIyWlLk6GJQsqaUBKTNV-1">
          <mxGeometry x="280" y="1400" width="130" height="120" as="geometry" />
        </mxCell>
        <mxCell id="Nl6X3K14c8FEmPsiGEoy-35" style="edgeStyle=orthogonalEdgeStyle;rounded=0;orthogonalLoop=1;jettySize=auto;html=1;entryX=0.5;entryY=0;entryDx=0;entryDy=0;" edge="1" parent="WIyWlLk6GJQsqaUBKTNV-1" source="Nl6X3K14c8FEmPsiGEoy-31" target="Nl6X3K14c8FEmPsiGEoy-32">
          <mxGeometry relative="1" as="geometry" />
        </mxCell>
        <mxCell id="Nl6X3K14c8FEmPsiGEoy-31" value="&lt;p style=&quot;line-height: 0%; font-size: 7px;&quot;&gt;&lt;br&gt;&lt;/p&gt;&lt;p style=&quot;line-height: 0%; font-size: 7px;&quot;&gt;TC &amp;lt; &lt;font color=&quot;#0000ff&quot;&gt;switchtemp&lt;/font&gt;&lt;/p&gt;&lt;p style=&quot;line-height: 0%; font-size: 7px;&quot;&gt;&lt;font color=&quot;#0000ff&quot;&gt;&lt;br&gt;&lt;/font&gt;&lt;/p&gt;&lt;p style=&quot;line-height: 0%; font-size: 7px;&quot;&gt;or&lt;/p&gt;&lt;p style=&quot;line-height: 0%; font-size: 7px;&quot;&gt;&lt;font color=&quot;#0000ff&quot;&gt;step&lt;/font&gt; = true&lt;/p&gt;" style="rhombus;whiteSpace=wrap;html=1;shadow=0;fontFamily=Helvetica;fontSize=12;align=center;strokeWidth=1;spacing=6;spacingTop=-4;" vertex="1" parent="WIyWlLk6GJQsqaUBKTNV-1">
          <mxGeometry x="295" y="1560" width="100" height="80" as="geometry" />
        </mxCell>
        <mxCell id="Nl6X3K14c8FEmPsiGEoy-37" style="edgeStyle=orthogonalEdgeStyle;rounded=0;orthogonalLoop=1;jettySize=auto;html=1;entryX=0.5;entryY=0;entryDx=0;entryDy=0;" edge="1" parent="WIyWlLk6GJQsqaUBKTNV-1" source="Nl6X3K14c8FEmPsiGEoy-32" target="Nl6X3K14c8FEmPsiGEoy-36">
          <mxGeometry relative="1" as="geometry" />
        </mxCell>
        <mxCell id="Nl6X3K14c8FEmPsiGEoy-32" value="&lt;font style=&quot;font-size: 11px;&quot;&gt;state = cool2&lt;br&gt;(cooler on temp ctrl. inc.)&amp;nbsp;&lt;br&gt;&lt;/font&gt;&lt;div style=&quot;text-align: left;&quot;&gt;&lt;br&gt;&lt;/div&gt;&lt;div style=&quot;text-align: left;&quot;&gt;&lt;span style=&quot;font-size: 8px; background-color: initial;&quot;&gt;SET PID=2&lt;/span&gt;&lt;/div&gt;&lt;div style=&quot;text-align: left;&quot;&gt;&lt;span style=&quot;font-size: 8px; background-color: initial;&quot;&gt;SET MAX=&lt;font color=&quot;#0000ff&quot;&gt;power(cryostartpower + cryoincreasepower )&lt;/font&gt;&lt;/span&gt;&lt;/div&gt;&lt;div style=&quot;text-align: left;&quot;&gt;&lt;span style=&quot;font-size: 8px; background-color: initial;&quot;&gt;SET SSTOP=0&lt;/span&gt;&lt;/div&gt;&lt;div style=&quot;text-align: left;&quot;&gt;&lt;span style=&quot;font-size: 8px; background-color: initial;&quot;&gt;&lt;br&gt;&lt;/span&gt;&lt;/div&gt;" style="rounded=1;whiteSpace=wrap;html=1;fontSize=12;glass=0;strokeWidth=1;shadow=0;" vertex="1" parent="WIyWlLk6GJQsqaUBKTNV-1">
          <mxGeometry x="280" y="1680" width="130" height="120" as="geometry" />
        </mxCell>
        <mxCell id="Nl6X3K14c8FEmPsiGEoy-38" style="edgeStyle=orthogonalEdgeStyle;rounded=0;orthogonalLoop=1;jettySize=auto;html=1;exitX=0;exitY=0.5;exitDx=0;exitDy=0;entryX=0;entryY=0.5;entryDx=0;entryDy=0;" edge="1" parent="WIyWlLk6GJQsqaUBKTNV-1" source="Nl6X3K14c8FEmPsiGEoy-36" target="Nl6X3K14c8FEmPsiGEoy-32">
          <mxGeometry relative="1" as="geometry">
            <Array as="points">
              <mxPoint x="160" y="1880" />
              <mxPoint x="160" y="1740" />
            </Array>
          </mxGeometry>
        </mxCell>
        <mxCell id="Nl6X3K14c8FEmPsiGEoy-39" value="&lt;font style=&quot;font-size: 8px;&quot;&gt;if power &amp;lt;&amp;nbsp; 240W&lt;br&gt;increase power by&lt;br&gt;&lt;font style=&quot;font-size: 8px;&quot; color=&quot;#0000ff&quot;&gt;cryoincreasepower&lt;br&gt;&lt;/font&gt;every 10 min&lt;/font&gt;" style="edgeLabel;html=1;align=center;verticalAlign=middle;resizable=0;points=[];" vertex="1" connectable="0" parent="Nl6X3K14c8FEmPsiGEoy-38">
          <mxGeometry x="0.0684" relative="1" as="geometry">
            <mxPoint as="offset" />
          </mxGeometry>
        </mxCell>
        <mxCell id="Nl6X3K14c8FEmPsiGEoy-41" style="edgeStyle=orthogonalEdgeStyle;rounded=0;orthogonalLoop=1;jettySize=auto;html=1;exitX=0.5;exitY=1;exitDx=0;exitDy=0;entryX=0.5;entryY=0;entryDx=0;entryDy=0;" edge="1" parent="WIyWlLk6GJQsqaUBKTNV-1" source="Nl6X3K14c8FEmPsiGEoy-36" target="Nl6X3K14c8FEmPsiGEoy-40">
          <mxGeometry relative="1" as="geometry" />
        </mxCell>
        <mxCell id="Nl6X3K14c8FEmPsiGEoy-36" value="&lt;p style=&quot;line-height: 0%; font-size: 7px;&quot;&gt;&lt;br&gt;&lt;/p&gt;&lt;p style=&quot;line-height: 0%; font-size: 7px;&quot;&gt;power () = &lt;font color=&quot;#0000ff&quot;&gt;240W&lt;/font&gt;&lt;/p&gt;&lt;p style=&quot;line-height: 0%; font-size: 7px;&quot;&gt;&lt;font color=&quot;#0000ff&quot;&gt;&lt;br&gt;&lt;/font&gt;&lt;/p&gt;&lt;p style=&quot;line-height: 0%; font-size: 7px;&quot;&gt;or&lt;/p&gt;&lt;p style=&quot;line-height: 0%; font-size: 7px;&quot;&gt;&lt;font color=&quot;#0000ff&quot;&gt;step&lt;/font&gt; = true&lt;/p&gt;" style="rhombus;whiteSpace=wrap;html=1;shadow=0;fontFamily=Helvetica;fontSize=12;align=center;strokeWidth=1;spacing=6;spacingTop=-4;" vertex="1" parent="WIyWlLk6GJQsqaUBKTNV-1">
          <mxGeometry x="295" y="1840" width="100" height="80" as="geometry" />
        </mxCell>
        <mxCell id="Nl6X3K14c8FEmPsiGEoy-40" value="&lt;font style=&quot;font-size: 11px;&quot;&gt;state = cool3&lt;br&gt;(cooler on temp ctrl.)&amp;nbsp;&lt;br&gt;&lt;/font&gt;&lt;div style=&quot;text-align: left;&quot;&gt;&lt;br&gt;&lt;/div&gt;&lt;div style=&quot;text-align: left;&quot;&gt;&lt;br&gt;&lt;/div&gt;&lt;div style=&quot;text-align: left;&quot;&gt;&lt;span style=&quot;font-size: 8px; background-color: initial;&quot;&gt;SET MAX=240W&lt;/span&gt;&lt;/div&gt;&lt;div style=&quot;text-align: left;&quot;&gt;&lt;span style=&quot;font-size: 8px; background-color: initial;&quot;&gt;SET SSTOP=0&lt;/span&gt;&lt;/div&gt;&lt;div style=&quot;text-align: left;&quot;&gt;&lt;span style=&quot;font-size: 8px; background-color: initial;&quot;&gt;&lt;br&gt;&lt;/span&gt;&lt;/div&gt;" style="rounded=1;whiteSpace=wrap;html=1;fontSize=12;glass=0;strokeWidth=1;shadow=0;" vertex="1" parent="WIyWlLk6GJQsqaUBKTNV-1">
          <mxGeometry x="280" y="1960" width="130" height="120" as="geometry" />
        </mxCell>
        <mxCell id="Nl6X3K14c8FEmPsiGEoy-46" style="edgeStyle=orthogonalEdgeStyle;rounded=0;orthogonalLoop=1;jettySize=auto;html=1;exitX=0.5;exitY=1;exitDx=0;exitDy=0;entryX=0.5;entryY=0;entryDx=0;entryDy=0;" edge="1" parent="WIyWlLk6GJQsqaUBKTNV-1" source="Nl6X3K14c8FEmPsiGEoy-43" target="Nl6X3K14c8FEmPsiGEoy-45">
          <mxGeometry relative="1" as="geometry" />
        </mxCell>
        <mxCell id="Nl6X3K14c8FEmPsiGEoy-43" value="&lt;font style=&quot;font-size: 11px;&quot;&gt;state = init&lt;br&gt;(set initial parameters)&lt;/font&gt;&lt;br&gt;&lt;br&gt;&lt;div style=&quot;text-align: left;&quot;&gt;&lt;span style=&quot;font-size: 8px; background-color: initial;&quot;&gt;p010=1&lt;/span&gt;&lt;/div&gt;&lt;div style=&quot;text-align: left;&quot;&gt;&lt;span style=&quot;font-size: 8px; background-color: initial;&quot;&gt;p002=0&lt;/span&gt;&lt;/div&gt;&lt;div style=&quot;text-align: left;&quot;&gt;&lt;span style=&quot;font-size: 8px; background-color: initial;&quot;&gt;p023=1&lt;/span&gt;&lt;/div&gt;&lt;div style=&quot;text-align: left;&quot;&gt;&lt;span style=&quot;font-size: 8px; background-color: initial;&quot;&gt;p024=0&lt;/span&gt;&lt;/div&gt;&lt;div style=&quot;text-align: left;&quot;&gt;&lt;font style=&quot;font-size: 8px;&quot;&gt;SET SSTOP=0&lt;/font&gt;&lt;span style=&quot;font-size: 8px; background-color: initial;&quot;&gt;&lt;br&gt;&lt;/span&gt;&lt;/div&gt;&lt;div style=&quot;text-align: left;&quot;&gt;&lt;font style=&quot;font-size: 8px;&quot;&gt;SET SSTOPM=1&lt;/font&gt;&lt;/div&gt;&lt;div style=&quot;text-align: left;&quot;&gt;&lt;font style=&quot;font-size: 8px;&quot;&gt;SET PID=2&lt;/font&gt;&lt;/div&gt;&lt;div style=&quot;text-align: left;&quot;&gt;&lt;font style=&quot;font-size: 8px;&quot;&gt;SET MAX=240&lt;/font&gt;&lt;/div&gt;&lt;div style=&quot;text-align: left;&quot;&gt;&lt;font style=&quot;font-size: 8px;&quot;&gt;&lt;br&gt;&lt;/font&gt;&lt;/div&gt;" style="rounded=1;whiteSpace=wrap;html=1;fontSize=12;glass=0;strokeWidth=1;shadow=0;" vertex="1" parent="WIyWlLk6GJQsqaUBKTNV-1">
          <mxGeometry x="880" y="400" width="130" height="160" as="geometry" />
        </mxCell>
        <mxCell id="Nl6X3K14c8FEmPsiGEoy-45" value="&lt;font style=&quot;font-size: 11px;&quot;&gt;state = cool3&lt;br&gt;(cooler on temp ctrl.)&amp;nbsp;&lt;br&gt;&lt;/font&gt;&lt;div style=&quot;text-align: left;&quot;&gt;&lt;br&gt;&lt;/div&gt;&lt;div style=&quot;text-align: left;&quot;&gt;&lt;br&gt;&lt;/div&gt;&lt;div style=&quot;text-align: left;&quot;&gt;&lt;br&gt;&lt;/div&gt;&lt;div style=&quot;text-align: left;&quot;&gt;&lt;br&gt;&lt;/div&gt;&lt;div style=&quot;text-align: left;&quot;&gt;&lt;span style=&quot;font-size: 8px; background-color: initial;&quot;&gt;&lt;br&gt;&lt;/span&gt;&lt;/div&gt;" style="rounded=1;whiteSpace=wrap;html=1;fontSize=12;glass=0;strokeWidth=1;shadow=0;" vertex="1" parent="WIyWlLk6GJQsqaUBKTNV-1">
          <mxGeometry x="880" y="600" width="130" height="120" as="geometry" />
        </mxCell>
        <mxCell id="Nl6X3K14c8FEmPsiGEoy-50" style="edgeStyle=orthogonalEdgeStyle;rounded=0;orthogonalLoop=1;jettySize=auto;html=1;entryX=0.5;entryY=0;entryDx=0;entryDy=0;" edge="1" parent="WIyWlLk6GJQsqaUBKTNV-1" source="Nl6X3K14c8FEmPsiGEoy-47" target="Nl6X3K14c8FEmPsiGEoy-65">
          <mxGeometry relative="1" as="geometry" />
        </mxCell>
        <mxCell id="Nl6X3K14c8FEmPsiGEoy-47" value="Power ON" style="rounded=1;whiteSpace=wrap;html=1;fontSize=12;glass=0;strokeWidth=1;shadow=0;" vertex="1" parent="WIyWlLk6GJQsqaUBKTNV-1">
          <mxGeometry x="1360" y="80" width="120" height="40" as="geometry" />
        </mxCell>
        <mxCell id="Nl6X3K14c8FEmPsiGEoy-52" style="edgeStyle=orthogonalEdgeStyle;rounded=0;orthogonalLoop=1;jettySize=auto;html=1;exitX=0.5;exitY=1;exitDx=0;exitDy=0;entryX=0;entryY=0.5;entryDx=0;entryDy=0;" edge="1" parent="WIyWlLk6GJQsqaUBKTNV-1" source="Nl6X3K14c8FEmPsiGEoy-48" target="Nl6X3K14c8FEmPsiGEoy-48">
          <mxGeometry relative="1" as="geometry">
            <mxPoint x="1260" y="430" as="targetPoint" />
            <mxPoint x="1350" y="510" as="sourcePoint" />
            <Array as="points">
              <mxPoint x="1420" y="570" />
              <mxPoint x="1370" y="570" />
            </Array>
          </mxGeometry>
        </mxCell>
        <mxCell id="Nl6X3K14c8FEmPsiGEoy-53" value="if SSTOP = 1&lt;br&gt;check again in 10 sec" style="edgeLabel;html=1;align=center;verticalAlign=middle;resizable=0;points=[];" vertex="1" connectable="0" parent="Nl6X3K14c8FEmPsiGEoy-52">
          <mxGeometry x="-0.3213" relative="1" as="geometry">
            <mxPoint x="10" y="-59" as="offset" />
          </mxGeometry>
        </mxCell>
        <mxCell id="Nl6X3K14c8FEmPsiGEoy-54" style="edgeStyle=orthogonalEdgeStyle;rounded=0;orthogonalLoop=1;jettySize=auto;html=1;exitX=1;exitY=0.5;exitDx=0;exitDy=0;entryX=0.469;entryY=0.003;entryDx=0;entryDy=0;entryPerimeter=0;" edge="1" parent="WIyWlLk6GJQsqaUBKTNV-1" source="Nl6X3K14c8FEmPsiGEoy-48" target="Nl6X3K14c8FEmPsiGEoy-55">
          <mxGeometry relative="1" as="geometry">
            <mxPoint x="1680" y="580" as="targetPoint" />
          </mxGeometry>
        </mxCell>
        <mxCell id="Nl6X3K14c8FEmPsiGEoy-56" value="if SSTOP = 0" style="edgeLabel;html=1;align=center;verticalAlign=middle;resizable=0;points=[];" vertex="1" connectable="0" parent="Nl6X3K14c8FEmPsiGEoy-54">
          <mxGeometry x="-0.4105" y="-1" relative="1" as="geometry">
            <mxPoint as="offset" />
          </mxGeometry>
        </mxCell>
        <mxCell id="Nl6X3K14c8FEmPsiGEoy-48" value="STATE" style="rhombus;whiteSpace=wrap;html=1;shadow=0;fontFamily=Helvetica;fontSize=12;align=center;strokeWidth=1;spacing=6;spacingTop=-4;" vertex="1" parent="WIyWlLk6GJQsqaUBKTNV-1">
          <mxGeometry x="1370" y="360" width="100" height="80" as="geometry" />
        </mxCell>
        <mxCell id="Nl6X3K14c8FEmPsiGEoy-49" value="&lt;b&gt;&lt;font style=&quot;font-size: 20px;&quot;&gt;Cryocooler Emergency Shutdown&lt;/font&gt;&lt;/b&gt;" style="text;html=1;align=center;verticalAlign=middle;whiteSpace=wrap;rounded=0;" vertex="1" parent="WIyWlLk6GJQsqaUBKTNV-1">
          <mxGeometry x="1220" y="10" width="400" height="30" as="geometry" />
        </mxCell>
        <mxCell id="Nl6X3K14c8FEmPsiGEoy-57" style="edgeStyle=orthogonalEdgeStyle;rounded=0;orthogonalLoop=1;jettySize=auto;html=1;" edge="1" parent="WIyWlLk6GJQsqaUBKTNV-1" source="Nl6X3K14c8FEmPsiGEoy-55">
          <mxGeometry relative="1" as="geometry">
            <mxPoint x="1665" y="780" as="targetPoint" />
          </mxGeometry>
        </mxCell>
        <mxCell id="Nl6X3K14c8FEmPsiGEoy-55" value="&lt;font style=&quot;font-size: 11px;&quot;&gt;watchdog cryo temp&lt;br&gt;&lt;/font&gt;&lt;br&gt;&lt;br&gt;&lt;br&gt;&lt;div style=&quot;text-align: left;&quot;&gt;&lt;span style=&quot;font-size: 8px;&quot;&gt;check:&lt;/span&gt;&lt;/div&gt;&lt;div style=&quot;text-align: left;&quot;&gt;&lt;span style=&quot;font-size: 8px;&quot;&gt;gt A5 &amp;lt; &lt;font color=&quot;#0000ff&quot;&gt;cryoshutdowntemp&lt;/font&gt;&lt;/span&gt;&lt;/div&gt;&lt;div style=&quot;text-align: left;&quot;&gt;&lt;span style=&quot;font-size: 8px;&quot;&gt;gt A6 &amp;lt; &lt;font color=&quot;#0000ff&quot;&gt;cryoshutdowntemp&lt;/font&gt;&lt;/span&gt;&lt;/div&gt;&lt;div style=&quot;text-align: left;&quot;&gt;&lt;span style=&quot;font-size: 8px;&quot;&gt;p302 &amp;gt; 80,000 rpm&lt;/span&gt;&lt;/div&gt;&lt;div style=&quot;text-align: left;&quot;&gt;&lt;font style=&quot;font-size: 8px;&quot;&gt;&lt;br&gt;&lt;/font&gt;&lt;/div&gt;&lt;div style=&quot;text-align: left;&quot;&gt;&lt;font style=&quot;font-size: 8px;&quot;&gt;&lt;br&gt;&lt;/font&gt;&lt;/div&gt;&lt;div style=&quot;text-align: left;&quot;&gt;&lt;font style=&quot;font-size: 8px;&quot;&gt;&lt;br&gt;&lt;/font&gt;&lt;/div&gt;" style="rounded=1;whiteSpace=wrap;html=1;fontSize=12;glass=0;strokeWidth=1;shadow=0;" vertex="1" parent="WIyWlLk6GJQsqaUBKTNV-1">
          <mxGeometry x="1600" y="580" width="130" height="160" as="geometry" />
        </mxCell>
        <mxCell id="Nl6X3K14c8FEmPsiGEoy-59" style="edgeStyle=orthogonalEdgeStyle;rounded=0;orthogonalLoop=1;jettySize=auto;html=1;exitX=0;exitY=0.5;exitDx=0;exitDy=0;" edge="1" parent="WIyWlLk6GJQsqaUBKTNV-1" source="Nl6X3K14c8FEmPsiGEoy-58">
          <mxGeometry relative="1" as="geometry">
            <mxPoint x="1370" y="400" as="targetPoint" />
            <Array as="points">
              <mxPoint x="1240" y="820" />
              <mxPoint x="1240" y="400" />
            </Array>
          </mxGeometry>
        </mxCell>
        <mxCell id="Nl6X3K14c8FEmPsiGEoy-60" value="true&amp;nbsp;&lt;br&gt;(check in 10 sec again)" style="edgeLabel;html=1;align=center;verticalAlign=middle;resizable=0;points=[];" vertex="1" connectable="0" parent="Nl6X3K14c8FEmPsiGEoy-59">
          <mxGeometry x="0.0482" y="1" relative="1" as="geometry">
            <mxPoint x="201" y="110" as="offset" />
          </mxGeometry>
        </mxCell>
        <mxCell id="Nl6X3K14c8FEmPsiGEoy-61" style="edgeStyle=orthogonalEdgeStyle;rounded=0;orthogonalLoop=1;jettySize=auto;html=1;" edge="1" parent="WIyWlLk6GJQsqaUBKTNV-1" source="Nl6X3K14c8FEmPsiGEoy-58">
          <mxGeometry relative="1" as="geometry">
            <mxPoint x="1665" y="900" as="targetPoint" />
          </mxGeometry>
        </mxCell>
        <mxCell id="Nl6X3K14c8FEmPsiGEoy-62" value="false" style="edgeLabel;html=1;align=center;verticalAlign=middle;resizable=0;points=[];" vertex="1" connectable="0" parent="Nl6X3K14c8FEmPsiGEoy-61">
          <mxGeometry x="0.0122" y="1" relative="1" as="geometry">
            <mxPoint as="offset" />
          </mxGeometry>
        </mxCell>
        <mxCell id="Nl6X3K14c8FEmPsiGEoy-58" value="&lt;p style=&quot;line-height: 100%; font-size: 8px;&quot;&gt;check&lt;/p&gt;" style="rhombus;whiteSpace=wrap;html=1;shadow=0;fontFamily=Helvetica;fontSize=12;align=center;strokeWidth=1;spacing=6;spacingTop=-4;" vertex="1" parent="WIyWlLk6GJQsqaUBKTNV-1">
          <mxGeometry x="1615" y="780" width="100" height="80" as="geometry" />
        </mxCell>
        <mxCell id="Nl6X3K14c8FEmPsiGEoy-63" value="&lt;span style=&quot;font-size: 11px;&quot;&gt;state = fault&lt;br&gt;&lt;/span&gt;&lt;br&gt;&lt;div style=&quot;text-align: left;&quot;&gt;&lt;span style=&quot;font-size: 8px;&quot;&gt;SET SSTOP=1&lt;/span&gt;&lt;/div&gt;&lt;div style=&quot;text-align: left;&quot;&gt;&lt;span style=&quot;font-size: 8px;&quot;&gt;set relay = off&lt;/span&gt;&lt;/div&gt;&lt;div style=&quot;text-align: left;&quot;&gt;&lt;span style=&quot;font-size: 8px;&quot;&gt;generate error code&lt;/span&gt;&lt;/div&gt;&lt;div style=&quot;text-align: left;&quot;&gt;&lt;span style=&quot;font-size: 8px;&quot;&gt;only allow to start up again after clearing error&lt;/span&gt;&lt;/div&gt;&lt;div style=&quot;text-align: left;&quot;&gt;&lt;font style=&quot;font-size: 8px;&quot;&gt;&lt;br&gt;&lt;/font&gt;&lt;/div&gt;" style="rounded=1;whiteSpace=wrap;html=1;fontSize=12;glass=0;strokeWidth=1;shadow=0;" vertex="1" parent="WIyWlLk6GJQsqaUBKTNV-1">
          <mxGeometry x="1600" y="900" width="130" height="160" as="geometry" />
        </mxCell>
        <mxCell id="Nl6X3K14c8FEmPsiGEoy-65" value="&lt;font style=&quot;border-color: var(--border-color); font-size: 11px;&quot;&gt;init watchdog&lt;br style=&quot;border-color: var(--border-color);&quot;&gt;&lt;/font&gt;&lt;br style=&quot;border-color: var(--border-color);&quot;&gt;&lt;br style=&quot;border-color: var(--border-color);&quot;&gt;&lt;div style=&quot;border-color: var(--border-color); text-align: left;&quot;&gt;check:&lt;/div&gt;&lt;div style=&quot;border-color: var(--border-color); text-align: left;&quot;&gt;&lt;span style=&quot;font-size: 8px;&quot;&gt;com. with vac&lt;/span&gt;&lt;/div&gt;&lt;div style=&quot;border-color: var(--border-color); text-align: left;&quot;&gt;&lt;span style=&quot;font-size: 8px;&quot;&gt;com. with cryo controller&lt;/span&gt;&lt;/div&gt;&lt;div style=&quot;border-color: var(--border-color); text-align: left;&quot;&gt;set:&lt;br&gt;&lt;/div&gt;&lt;div style=&quot;border-color: var(--border-color); text-align: left;&quot;&gt;&lt;font style=&quot;border-color: var(--border-color); font-size: 8px;&quot;&gt;relay = true&lt;/font&gt;&lt;/div&gt;&lt;div style=&quot;border-color: var(--border-color); text-align: left;&quot;&gt;&lt;font style=&quot;border-color: var(--border-color); font-size: 8px;&quot;&gt;&lt;br style=&quot;border-color: var(--border-color);&quot;&gt;&lt;/font&gt;&lt;/div&gt;" style="rounded=1;whiteSpace=wrap;html=1;fontSize=12;glass=0;strokeWidth=1;shadow=0;" vertex="1" parent="WIyWlLk6GJQsqaUBKTNV-1">
          <mxGeometry x="1360" y="160" width="120" height="160" as="geometry" />
        </mxCell>
        <mxCell id="Nl6X3K14c8FEmPsiGEoy-66" style="edgeStyle=orthogonalEdgeStyle;rounded=0;orthogonalLoop=1;jettySize=auto;html=1;entryX=0.5;entryY=0;entryDx=0;entryDy=0;" edge="1" parent="WIyWlLk6GJQsqaUBKTNV-1" source="Nl6X3K14c8FEmPsiGEoy-65" target="Nl6X3K14c8FEmPsiGEoy-48">
          <mxGeometry relative="1" as="geometry" />
        </mxCell>
      </root>
    </mxGraphModel>
  </diagram>
</mxfile>
